<svg xmlns="http://www.w3.org/2000/svg" xmlns:xlink="http://www.w3.org/1999/xlink" width="374.999" height="75.702" viewBox="0 0 374.999 75.702">
  <defs>
    <filter id="Subtraction_5" x="0" y="0" width="374.999" height="75.702" filterUnits="userSpaceOnUse">
      <feOffset dy="10" input="SourceAlpha"/>
      <feGaussianBlur stdDeviation="7.5" result="blur"/>
      <feFlood flood-opacity="0.161" result="color"/>
      <feComposite operator="out" in="SourceGraphic" in2="blur"/>
      <feComposite operator="in" in="color"/>
      <feComposite operator="in" in2="SourceGraphic"/>
    </filter>
  </defs>
  <g data-type="innerShadowGroup">
    <path id="Subtraction_5-2" data-name="Subtraction 5" d="M-3147,1157h-375v-45.542a306.659,306.659,0,0,0,72.526,9.1c5.263,0,10.552-.158,15.718-.47,28.326-1.711,47.054-3.561,62.62-6.187,14.928-2.518,26.287-5.62,42.009-9.914l.018,0c14.15-3.865,31.754-8.674,58.389-14.774a241.588,241.588,0,0,1,30.957-6.056,230.838,230.838,0,0,1,29.1-1.857,228.716,228.716,0,0,1,46.966,4.9c5.967,1.254,11.429,2.584,16.7,4.066V1157Z" transform="translate(3522 -1081.299)" fill="#b691b4"/>
    <g transform="matrix(1, 0, 0, 1, 0, 0)" filter="url(#Subtraction_5)">
      <path id="Subtraction_5-3" data-name="Subtraction 5" d="M-3147,1157h-375v-45.542a306.659,306.659,0,0,0,72.526,9.1c5.263,0,10.552-.158,15.718-.47,28.326-1.711,47.054-3.561,62.62-6.187,14.928-2.518,26.287-5.62,42.009-9.914l.018,0c14.15-3.865,31.754-8.674,58.389-14.774a241.588,241.588,0,0,1,30.957-6.056,230.838,230.838,0,0,1,29.1-1.857,228.716,228.716,0,0,1,46.966,4.9c5.967,1.254,11.429,2.584,16.7,4.066V1157Z" transform="translate(3522 -1081.3)" fill="#fff"/>
    </g>
  </g>
</svg>
